# xmcd CD database file
#
# Track frame offsets:
#	150
#	11344
#	21934
#	34413
#	43485
#	55475
#	66183
#	76667
#	87922
#	99444
#	113015
#	125956
#	140209
#	152965
#
# Disc length: 2188 seconds
#
# Revision: 0
# Processed by: cddbd v1.5.2PL0 Copyright (c) Steve Scherf et al.
# Submitted via: CDex 1.51
#
DISCID=c5088a0e
DTITLE=Various Artist - Jim Reeves Meets Frankie Laine CD 2
DYEAR=2005
DGENRE=Country
TTITLE0=Answer Me - Frankie Laine
TTITLE1=A Woman In Love - Frankie Laine
TTITLE2=Moonlight Gambler - Frankie Laine
TTITLE3=Rawhide - Frankie Laine
TTITLE4=High Noon - Frankie Laine
TTITLE5=Hummingbird - Frankie Laine
TTITLE6=Sixteen Tons - Frankie Laine
TTITLE7=Love Is A Golden Ring - Frankie Laine
TTITLE8=Strange Lady in Town - Frankie Laine
TTITLE9=Cool Water - Frankie Laine
TTITLE10=Rain, Rain, Rain - Frankie Laine
TTITLE11=There Must Be A Reason - Frankie Laine
TTITLE12=Granada - Frankie Laine
TTITLE13=Along The Navajo Trail - Frankie Laine
EXTD=YEAR: 2005
EXTT0=
EXTT1=
EXTT2=
EXTT3=
EXTT4=
EXTT5=
EXTT6=
EXTT7=
EXTT8=
EXTT9=
EXTT10=
EXTT11=
EXTT12=
EXTT13=
PLAYORDER=
